<?xml version="1.0" standalone="no"?>
<!DOCTYPE svg PUBLIC "-//W3C//DTD SVG 20010904//EN"
 "http://www.w3.org/TR/2001/REC-SVG-20010904/DTD/svg10.dtd">
<svg version="1.0" xmlns="http://www.w3.org/2000/svg"
 width="972.000000pt" height="972.000000pt" viewBox="0 0 972.000000 972.000000"
 preserveAspectRatio="xMidYMid meet">
<metadata>
Created by potrace 1.14, written by Peter Selinger 2001-2017
</metadata>
<g transform="translate(0.000000,972.000000) scale(0.100000,-0.100000)"
fill="#000000" stroke="none">
<path d="M1928 9708 c-21 -5 -38 -14 -38 -19 0 -5 -8 -9 -17 -9 -49 -1 -146
-131 -158 -210 -13 -89 -8 -295 10 -345 29 -88 78 -142 165 -183 53 -25 77
-29 223 -31 17 -1 27 -6 26 -13 -4 -18 12 -101 21 -113 13 -18 38 -103 32
-109 -3 -3 0 -6 6 -6 7 0 12 -11 12 -25 0 -14 4 -25 8 -25 5 0 9 -6 9 -12 0
-12 99 -276 128 -343 8 -16 36 -85 64 -153 48 -115 110 -256 168 -382 45 -98
311 -633 356 -715 91 -169 120 -220 127 -230 4 -5 25 -41 45 -80 21 -38 47
-81 57 -94 10 -13 18 -27 18 -32 0 -4 23 -43 50 -86 28 -43 57 -92 65 -109 7
-17 21 -36 29 -44 9 -7 16 -17 16 -22 0 -22 464 -698 500 -728 3 -3 21 -25 40
-50 53 -69 64 -82 80 -99 19 -21 67 -85 99 -131 37 -53 106 -207 124 -275 27
-100 29 -115 32 -251 4 -140 -9 -231 -47 -344 -12 -36 -21 -68 -20 -72 1 -5
-3 -8 -8 -8 -6 0 -10 -8 -10 -18 0 -10 -4 -22 -9 -27 -5 -6 -20 -30 -33 -55
-48 -87 -65 -116 -111 -188 -26 -40 -47 -75 -47 -78 0 -2 -5 -10 -10 -17 -6
-7 -34 -48 -61 -92 -86 -135 -187 -289 -198 -302 -6 -7 -11 -16 -11 -21 0 -4
-9 -18 -20 -30 -12 -12 -18 -22 -15 -22 3 0 -5 -15 -19 -33 -15 -19 -26 -39
-26 -45 0 -7 -3 -12 -8 -12 -4 0 -27 -33 -52 -72 -24 -40 -48 -77 -52 -83 -8
-10 -25 -37 -132 -205 -26 -41 -68 -106 -92 -143 -24 -38 -44 -73 -44 -78 0
-5 -4 -9 -10 -9 -5 0 -10 -5 -10 -11 0 -5 -20 -40 -43 -77 -24 -37 -72 -114
-107 -172 -35 -58 -72 -117 -82 -133 -11 -15 -16 -27 -11 -27 4 0 3 -4 -2 -8
-10 -7 -126 -201 -195 -327 -18 -33 -52 -94 -76 -135 -133 -235 -332 -635
-450 -908 -8 -17 -21 -48 -30 -68 -9 -20 -26 -64 -38 -96 l-21 -60 -91 0
c-154 -1 -249 -53 -312 -173 -25 -47 -27 -60 -30 -210 -3 -142 -1 -167 17
-214 38 -101 101 -164 196 -195 46 -15 292 -16 2955 -13 1598 2 2914 5 2925 8
102 23 201 131 220 240 8 43 9 264 1 305 -17 94 -85 180 -174 221 -65 30 -69
31 -159 32 -62 1 -72 3 -71 18 2 46 -184 454 -343 753 -116 218 -149 277 -245
442 -37 62 -76 129 -87 148 -10 19 -28 47 -38 62 -11 14 -19 28 -19 31 0 3
-22 40 -50 81 -27 42 -50 80 -50 86 0 5 -4 10 -10 10 -5 0 -10 5 -10 10 0 11
-13 31 -257 403 -90 136 -163 252 -163 258 0 5 -4 9 -9 9 -6 0 -20 18 -32 40
-13 22 -26 40 -31 40 -4 0 -8 4 -8 9 0 8 -117 189 -130 201 -3 3 -30 41 -60
85 -30 44 -71 105 -92 135 -21 30 -59 87 -84 125 -26 39 -49 72 -53 75 -3 3
-12 17 -20 33 -8 15 -18 27 -23 27 -4 0 -8 5 -8 10 0 10 -48 90 -61 100 -3 3
-45 70 -94 149 -94 151 -157 293 -175 388 -5 32 -12 69 -15 83 -3 14 -6 72 -6
130 0 110 4 151 27 258 3 15 7 32 8 37 1 6 5 16 9 22 5 7 10 22 12 33 5 27 73
169 94 196 9 12 23 32 31 44 13 20 86 113 115 147 11 14 10 12 81 103 96 123
150 195 235 315 111 155 249 355 249 360 0 2 20 33 45 68 25 36 45 69 45 75 0
6 4 12 9 14 4 2 30 39 56 83 27 44 52 82 57 83 4 2 8 7 8 12 0 5 23 45 50 89
28 44 50 85 50 91 0 5 5 10 10 10 6 0 10 5 10 11 0 6 12 30 28 53 15 22 36 59
47 81 11 22 22 42 25 45 5 5 15 21 58 99 14 25 44 80 67 121 23 41 45 82 49
90 3 8 22 44 42 80 60 110 173 335 173 344 -1 5 3 12 8 15 4 3 16 22 25 41 41
85 138 293 138 296 0 2 14 34 31 71 17 38 51 118 76 178 25 61 51 124 58 140
8 17 35 89 61 160 25 72 56 154 67 183 11 30 20 67 19 83 l-1 29 67 1 c103 1
127 5 185 32 65 29 135 106 159 174 14 39 17 78 15 213 -2 148 -5 170 -25 211
-26 52 -88 119 -129 138 -16 7 -37 18 -48 25 -27 15 -5841 19 -5897 4z m5079
-798 l233 0 -31 -87 c-33 -96 -41 -115 -57 -153 -6 -14 -25 -61 -42 -105 -17
-44 -42 -104 -55 -133 -14 -29 -25 -57 -25 -62 0 -6 -4 -18 -10 -28 -9 -16
-65 -136 -112 -242 -32 -72 -223 -456 -276 -555 -27 -49 -67 -124 -89 -165
-22 -41 -66 -120 -98 -175 -32 -55 -67 -116 -78 -135 -11 -19 -28 -47 -38 -62
-11 -14 -19 -28 -19 -31 0 -3 -28 -52 -63 -109 -35 -57 -70 -114 -78 -127 -8
-14 -22 -34 -31 -45 -10 -11 -18 -26 -18 -33 0 -7 -4 -13 -10 -13 -5 0 -10 -4
-10 -10 0 -5 -25 -46 -55 -91 -30 -45 -55 -83 -55 -85 0 -2 -23 -36 -51 -76
-28 -40 -67 -98 -87 -128 -21 -30 -40 -56 -44 -58 -5 -2 -8 -8 -8 -14 0 -5 -6
-15 -12 -22 -7 -8 -38 -48 -68 -90 -44 -62 -116 -158 -187 -251 -5 -6 -44 -54
-88 -108 -44 -55 -108 -140 -143 -190 -62 -90 -142 -243 -142 -269 0 -8 -4
-18 -9 -23 -8 -9 -46 -136 -56 -184 -35 -180 -37 -388 -5 -551 16 -82 49 -199
72 -250 45 -101 53 -118 90 -179 21 -34 38 -65 38 -68 0 -2 18 -31 40 -64 22
-33 40 -64 40 -68 0 -4 9 -16 20 -26 11 -10 20 -21 20 -25 0 -7 136 -210 347
-518 54 -79 105 -154 113 -167 114 -174 377 -561 383 -563 4 -2 7 -8 7 -13 0
-8 41 -73 77 -125 5 -5 13 -19 20 -30 7 -10 30 -48 53 -84 23 -36 46 -74 53
-85 7 -11 29 -45 50 -77 20 -31 37 -59 37 -62 0 -2 23 -40 50 -83 28 -43 55
-89 61 -103 5 -13 13 -27 17 -30 4 -3 15 -20 25 -38 9 -17 25 -47 35 -64 9
-18 20 -35 23 -38 3 -3 12 -18 21 -35 8 -16 30 -57 49 -90 68 -121 90 -164
202 -390 119 -241 187 -387 187 -405 0 -10 -30 -11 -355 -11 -170 0 -165 0
-163 9 2 10 -8 32 -130 282 -60 124 -112 235 -116 248 -4 12 -12 22 -17 22 -5
0 -9 7 -9 15 0 8 -9 29 -20 47 -11 18 -20 41 -20 51 0 9 -4 17 -10 17 -5 0
-10 4 -10 10 0 5 -41 94 -92 197 -51 104 -92 190 -93 193 0 3 -25 55 -54 115
-269 552 -247 510 -288 528 -56 26 -73 27 -149 10 -96 -20 -202 -19 -294 2
-48 11 -125 43 -147 61 -15 13 -32 27 -38 32 -85 67 -177 103 -276 107 -148 6
-261 -39 -392 -155 -87 -76 -137 -104 -222 -124 -105 -23 -193 -12 -307 38
-23 10 -65 13 -113 7 -17 -2 -70 -54 -88 -86 -18 -32 -117 -245 -117 -251 0
-2 -17 -38 -37 -81 -21 -43 -38 -80 -38 -83 -2 -7 -61 -133 -92 -195 -13 -27
-24 -51 -24 -53 1 -1 -14 -35 -32 -75 -19 -39 -45 -94 -57 -122 -37 -82 -80
-177 -105 -230 -13 -27 -32 -70 -43 -95 -11 -25 -43 -94 -71 -153 -28 -60 -51
-110 -51 -112 0 -2 -18 -42 -40 -89 l-41 -86 -42 0 c-192 -2 -501 1 -506 5 -8
8 41 120 175 405 30 63 59 123 65 134 13 22 104 197 168 321 25 50 49 92 52
95 3 3 22 36 43 74 20 38 40 74 46 81 5 6 7 15 3 18 -3 4 -1 7 5 7 7 0 18 15
26 33 8 17 22 43 30 57 9 14 88 147 177 295 90 149 179 295 198 325 20 30 40
63 46 72 36 63 90 144 97 146 4 2 8 8 8 12 0 8 48 84 185 295 29 44 84 130
123 190 39 61 76 117 82 125 23 35 148 228 165 257 231 378 260 432 306 568
13 39 24 72 24 75 1 3 6 30 13 60 6 30 14 69 18 85 10 51 13 337 3 395 -5 30
-11 72 -14 92 -7 44 -45 174 -71 238 -24 61 -110 227 -124 240 -3 3 -17 21
-30 40 -13 19 -60 80 -105 135 -94 116 -262 341 -325 435 -24 36 -47 67 -50
70 -4 3 -9 10 -11 15 -3 8 -85 134 -184 285 -45 68 -214 351 -227 381 -7 16
-16 29 -19 29 -4 0 -12 15 -20 33 -7 17 -15 34 -18 37 -3 3 -17 25 -31 50 -77
142 -114 211 -138 260 -15 30 -29 57 -32 60 -7 7 -179 354 -224 453 -20 42
-52 112 -72 155 -20 42 -44 97 -54 122 -10 25 -25 59 -34 75 -9 17 -16 33 -16
37 0 4 -11 31 -24 60 -13 29 -33 76 -45 105 -11 28 -26 64 -33 80 -6 15 -12
30 -12 33 -1 5 -11 31 -41 105 -27 68 -103 277 -120 332 -3 9 35 13 153 15
124 2 1953 2 4349 -2z"/>
<path d="M4860 4021 c-5 -11 -10 -27 -10 -35 0 -26 -40 -134 -72 -195 -16 -31
-71 -114 -122 -186 -134 -186 -131 -179 -131 -305 1 -74 4 -93 29 -143 139
-276 526 -269 654 12 21 46 26 72 26 141 0 105 -6 119 -132 294 -120 167 -205
342 -204 419 1 23 -25 22 -38 -2z"/>
</g>
</svg>
